<?xml version="1.0" standalone="no"?>
<svg id="SvgjsSvg4069" width="100%" height="100%" xmlns="http://www.w3.org/2000/svg" version="1.1" xmlns:xlink="http://www.w3.org/1999/xlink" xmlns:svgjs="http://svgjs.com/svgjs" preserveAspectRatio="xMidYMid slice" viewBox="0 0 360 180"><defs id="SvgjsDefs4070"><clipPath id="SvgjsClipPath4226"><path id="SvgjsPath4225" d="M-3.9672851670502496e-7 9.324457275390643L-3.9672851670502496e-7 9.324457275390643L-3.9672851670502496e-7 -292.5000107421875L82.34328475952148 -292.5000107421875L82.34328475952148 5.086199951171892L82.34328475952148 5.086199951171892Q82.34328475952148 39.900456542968755 100.20451205444334 58.36714916992187L100.20451205444334 58.36714916992187L100.20451205444334 58.36714916992187Q118.06573934936523 76.833841796875 153.78819393920898 76.833841796875L153.78819393920898 76.833841796875L153.78819393920898 76.833841796875Q189.51064852905273 76.833841796875 207.22050949096678 58.36714916992187L207.22050949096678 58.36714916992187L207.22050949096678 58.36714916992187Q224.93037045288082 39.900456542968755 224.93037045288082 5.086199951171892L224.93037045288082 5.086199951171892L224.93037045288082 -292.5000107421875L307.5763882751465 -292.5000107421875L307.5763882751465 9.324457275390643L307.5763882751465 9.324457275390643Q307.5763882751465 77.43930712890625 266.25337936401365 114.97815771484375L266.25337936401365 114.97815771484375L266.25337936401365 114.97815771484375Q224.93037045288082 152.51700830078124 153.78819393920898 152.51700830078124L153.78819393920898 152.51700830078124L153.78819393920898 152.51700830078124Q82.94875009155272 152.51700830078124 41.47437484741211 114.82679138183593L41.47437484741211 114.82679138183593L41.47437484741211 114.82679138183593Q-3.9672851670502496e-7 77.13657446289064 -3.9672851670502496e-7 9.324457275390643Z " fill="#ed1d1d"></path></clipPath><pattern id="SvgjsPattern4228" x="0" y="0" width="20" height="20" patternUnits="userSpaceOnUse" patternTransform="matrix(0.7071067811865476,0.7071067811865475,-0.7071067811865475,0.7071067811865476,0,0)"><line id="SvgjsLine4229" x1="0" y1="0" x2="0" y2="20" stroke-opacity="0.05" stroke="#000000" stroke-width="20"></line></pattern></defs><rect id="SvgjsRect4071" width="360" height="180" fill="#005293"></rect><ellipse id="SvgjsEllipse4072" rx="15.845637583892621" ry="15.845637583892621" cx="15.845637583892621" cy="18.25763758389262" fill="#1a3050"></ellipse><svg id="SvgjsSvg4073" x="180" y="90" style="overflow: visible;"><rect id="SvgjsRect4074" width="720" height="360" fill="#ffffff" x="0" y="0" transform="matrix(0.9187097458693203,-0.3949334157104574,0.3949334157104574,0.9187097458693203,0,0)"></rect><rect id="SvgjsRect4076" width="720" height="360" fill="#ffffff" x="0" y="-1" transform="matrix(0.3949334157104575,0.9187097458693203,-0.9187097458693203,0.3949334157104575,0,0)"></rect></svg><path id="SvgjsPath4223" d="M-3.9672851670502496e-7 9.324457275390643L-3.9672851670502496e-7 9.324457275390643L-3.9672851670502496e-7 -292.5000107421875L82.34328475952148 -292.5000107421875L82.34328475952148 5.086199951171892L82.34328475952148 5.086199951171892Q82.34328475952148 39.900456542968755 100.20451205444334 58.36714916992187L100.20451205444334 58.36714916992187L100.20451205444334 58.36714916992187Q118.06573934936523 76.833841796875 153.78819393920898 76.833841796875L153.78819393920898 76.833841796875L153.78819393920898 76.833841796875Q189.51064852905273 76.833841796875 207.22050949096678 58.36714916992187L207.22050949096678 58.36714916992187L207.22050949096678 58.36714916992187Q224.93037045288082 39.900456542968755 224.93037045288082 5.086199951171892L224.93037045288082 5.086199951171892L224.93037045288082 -292.5000107421875L307.5763882751465 -292.5000107421875L307.5763882751465 9.324457275390643L307.5763882751465 9.324457275390643Q307.5763882751465 77.43930712890625 266.25337936401365 114.97815771484375L266.25337936401365 114.97815771484375L266.25337936401365 114.97815771484375Q224.93037045288082 152.51700830078124 153.78819393920898 152.51700830078124L153.78819393920898 152.51700830078124L153.78819393920898 152.51700830078124Q82.94875009155272 152.51700830078124 41.47437484741211 114.82679138183593L41.47437484741211 114.82679138183593L41.47437484741211 114.82679138183593Q-3.9672851670502496e-7 77.13657446289064 -3.9672851670502496e-7 9.324457275390643Z " fill="#ed1d1d"></path><polygon id="SvgjsPolygon4224" points="371.112,120.96898315658142 304.584,241.92898315658144 171.528,241.92898315658144 104.99999999999999,120.96898315658142 171.528,0.008983156581411578 304.584,0.008983156581411578" fill="#f7f6e7" clip-path="url(&quot;#SvgjsClipPath4226&quot;)"></polygon><rect id="SvgjsRect4227" width="360" height="180" fill="url(#SvgjsPattern4228)"></rect></svg>